<?xml version="1.0" encoding="UTF-8"?>
<svg version="1.1" xmlns="http://www.w3.org/2000/svg" width="32" height="32">
<path d="M0 0 C-0.33 2.31 -0.66 4.62 -1 7 C-1.99 7.33 -2.98 7.66 -4 8 C-3.67 8.86625 -3.34 9.7325 -3 10.625 C-1.47473702 15.77276256 -1.41618413 18.64554718 -3.5625 23.625 C-5.96954907 27.42073123 -8.73107817 29.58261731 -13 31 C-17.71563395 31.80958671 -21.62321476 31.51044278 -25.875 29.25 C-29.59836679 26.56917591 -31.66797085 24.82487338 -32.50390625 20.23046875 C-32.68169098 10.997515 -32.68169098 10.997515 -29.375 6.875 C-26.48236794 4.10402069 -24.01999782 2.64319965 -20 2 C-15.68897261 2.10025645 -11.71343647 2.6791022 -8 5 C-7.71125 4.360625 -7.4225 3.72125 -7.125 3.0625 C-5.228943 -0.41360449 -4.0216034 0 0 0 Z M-8 8 C-7 10 -7 10 -7 10 Z " fill="#B8781B" transform="translate(32,0)"/>
<path d="M0 0 C-0.33 2.31 -0.66 4.62 -1 7 C-1.99 7.33 -2.98 7.66 -4 8 C-4 8.66 -4 9.32 -4 10 C-4.66 10 -5.32 10 -6 10 C-6.33 10.66 -6.66 11.32 -7 12 C-7 10.68 -7 9.36 -7 8 C-9.475 7.505 -9.475 7.505 -12 7 C-12.16687448 9.41645782 -12.16687448 9.41645782 -12 12 C-11.34 12.66 -10.68 13.32 -10 14 C-10.32110689 17.53217579 -10.87816502 20.63449506 -12 24 C-15.63 24 -19.26 24 -23 24 C-21.35 20.7 -19.7 17.4 -18 14 C-15 17 -15 17 -14 19 C-13.957279 17.33388095 -13.95936168 15.66617115 -14 14 C-15.96822886 12.03177114 -19.34808709 12.33751619 -22 12 C-22 14.64 -22 17.28 -22 20 C-22.66 20.33 -23.32 20.66 -24 21 C-24.33 16.71 -24.66 12.42 -25 8 C-28.76687864 11.76687864 -29.67652988 13.14727622 -31 18 C-31.33 18 -31.66 18 -32 18 C-32.41081122 14.6450417 -32.60143047 12.04415012 -30.875 9.046875 C-27.74062026 5.16155012 -25.07379621 2.81180739 -20 2 C-15.68897261 2.10025645 -11.71343647 2.6791022 -8 5 C-7.71125 4.360625 -7.4225 3.72125 -7.125 3.0625 C-5.228943 -0.41360449 -4.0216034 0 0 0 Z " fill="#E4BE59" transform="translate(32,0)"/>
<path d="M0 0 C0.66 0.33 1.32 0.66 2 1 C2.4140625 3.72265625 2.4140625 3.72265625 2.625 7.0625 C2.69976562 8.16722656 2.77453125 9.27195312 2.8515625 10.41015625 C2.90054687 11.26480469 2.94953125 12.11945312 3 13 C3.33 10.36 3.66 7.72 4 5 C7.375 4.875 7.375 4.875 11 5 C13 7 13 7 13.125 10.125 C13.08375 11.07375 13.0425 12.0225 13 13 C11.29159719 11.36587557 10.06546953 10.13093906 9 8 C8.69707031 8.56589844 8.39414063 9.13179687 8.08203125 9.71484375 C4.61749571 15.78044597 4.61749571 15.78044597 1.1875 17 C0.465625 17 -0.25625 17 -1 17 C-1.66 15.68 -2.32 14.36 -3 13 C-3.33 13.66 -3.66 14.32 -4 15 C-4.66 15 -5.32 15 -6 15 C-5.40995795 9.09957947 -4.2882232 4.2882232 0 0 Z " fill="#DEA83C" transform="translate(6,7)"/>
<path d="M0 0 C2.91517292 1.07401108 4.77810176 1.77810176 7 4 C7.99 4.33 8.98 4.66 10 5 C10.66626598 8.02788201 11.12464649 10.89422506 11 14 C8.8125 17.0625 8.8125 17.0625 6 19 C4.68 19 3.36 19 2 19 C0.94985222 16.08292284 1.07237334 14.53359401 1.5625 11.375 C1.706875 10.26125 1.85125 9.1475 2 8 C1.34 7.34 0.68 6.68 0 6 C-0.125 2.875 -0.125 2.875 0 0 Z " fill="#D69B30" transform="translate(19,6)"/>
<path d="M0 0 C9.16988417 -0.48262548 9.16988417 -0.48262548 12.6875 1.5625 C14.55379624 5.02847874 13.88811979 7.24257013 13 11 C12.67 11.99 12.34 12.98 12 14 C8.37 14 4.74 14 1 14 C2.65 10.7 4.3 7.4 6 4 C9 7 9 7 10 9 C10.042721 7.33388095 10.04063832 5.66617115 10 4 C8.03177114 2.03177114 4.65191291 2.33751619 2 2 C2 4.64 2 7.28 2 10 C1.01 10.495 1.01 10.495 0 11 C0 7.37 0 3.74 0 0 Z " fill="#F8EDC7" transform="translate(8,10)"/>
<path d="M0 0 C9.24324324 -0.48648649 9.24324324 -0.48648649 12.625 1.6875 C14.21961817 4.36935783 14.34098943 5.93109509 14 9 C13.01 9.495 13.01 9.495 12 10 C11.5359375 8.5459375 11.5359375 8.5459375 11.0625 7.0625 C10.30476658 4.15934208 10.30476658 4.15934208 9 3 C6.67182036 2.63239269 4.3381615 2.29758419 2 2 C2 4.64 2 7.28 2 10 C1.01 10.495 1.01 10.495 0 11 C0 7.37 0 3.74 0 0 Z " fill="#F8EDC7" transform="translate(8,10)"/>
<path d="M0 0 C1.21236328 0.04060547 1.21236328 0.04060547 2.44921875 0.08203125 C3.06410156 0.11683594 3.67898437 0.15164062 4.3125 0.1875 C4.6425 1.1775 4.9725 2.1675 5.3125 3.1875 C4.3225 4.6725 4.3225 4.6725 3.3125 6.1875 C1.66583797 6.0739371 0.02013918 5.94632619 -1.625 5.8125 C-2.99978516 5.70808594 -2.99978516 5.70808594 -4.40234375 5.6015625 C-5.53349609 5.39660156 -5.53349609 5.39660156 -6.6875 5.1875 C-7.0175 4.5275 -7.3475 3.8675 -7.6875 3.1875 C-5.26849268 0.20484049 -3.789448 -0.16475861 0 0 Z " fill="#E7B84F" transform="translate(14.6875,4.8125)"/>
<path d="M0 0 C3 3.75 3 3.75 3 6 C4.32 5.34 5.64 4.68 7 4 C7 4.66 7 5.32 7 6 C9.31 6 11.62 6 14 6 C14 6.33 14 6.66 14 7 C11.36 7.66 8.72 8.32 6 9 C6.66 9.66 7.32 10.32 8 11 C5.25 10.875 5.25 10.875 2 10 C-0.375 6.9375 -0.375 6.9375 -2 4 C-1.34 4 -0.68 4 0 4 C0 2.68 0 1.36 0 0 Z " fill="#CC8D24" transform="translate(2,18)"/>
<path d="M0 0 C0.33 0.99 0.66 1.98 1 3 C4.54518884 1.60240095 4.54518884 1.60240095 8 0 C7.1875 2.4375 7.1875 2.4375 6 5 C1.9416951 6.3527683 -1.48550136 5.89548223 -5.6875 5.5 C-6.68136719 5.4071875 -7.67523438 5.314375 -8.69921875 5.21875 C-9.45847656 5.1465625 -10.21773437 5.074375 -11 5 C-10.67 4.34 -10.34 3.68 -10 3 C-7.71484375 2.5859375 -7.71484375 2.5859375 -4.9375 2.375 C-4.01839844 2.30023437 -3.09929688 2.22546875 -2.15234375 2.1484375 C-1.44207031 2.09945313 -0.73179688 2.05046875 0 2 C0 1.34 0 0.68 0 0 Z " fill="#C9861B" transform="translate(20,22)"/>
<path d="M0 0 C1.32 0 2.64 0 4 0 C4.3125 2.6875 4.3125 2.6875 4 6 C1.5 8.875 1.5 8.875 -1 11 C-1.66 10.67 -2.32 10.34 -3 10 C-2.505 9.46375 -2.01 8.9275 -1.5 8.375 C0.37489544 5.40641555 0.23501425 3.44687573 0 0 Z " fill="#CC932F" transform="translate(26,14)"/>
<path d="M0 0 C0.680625 0.07863281 1.36125 0.15726562 2.0625 0.23828125 C4 0.6875 4 0.6875 7 2.6875 C7 3.3475 7 4.0075 7 4.6875 C4.85270859 4.40676927 2.70716807 4.11261501 0.5625 3.8125 C-0.63246094 3.65007813 -1.82742188 3.48765625 -3.05859375 3.3203125 C-4.02925781 3.11148437 -4.99992188 2.90265625 -6 2.6875 C-6.33 2.0275 -6.66 1.3675 -7 0.6875 C-4.09583903 -0.28055366 -2.92345144 -0.37096827 0 0 Z " fill="#E8CC6D" transform="translate(16,2.3125)"/>
<path d="M0 0 C-0.33 2.31 -0.66 4.62 -1 7 C-1.99 7 -2.98 7 -4 7 C-4 5.35 -4 3.7 -4 2 C-4.66 1.67 -5.32 1.34 -6 1 C-4 0 -4 0 0 0 Z " fill="#E9C763" transform="translate(32,0)"/>
<path d="M0 0 C0.33 0 0.66 0 1 0 C1.625 2.8125 1.625 2.8125 2 6 C1.01 7.485 1.01 7.485 0 9 C0 8.34 0 7.68 0 7 C-1.98 7 -3.96 7 -6 7 C-5.67 6.01 -5.34 5.02 -5 4 C-4.01 3.67 -3.02 3.34 -2 3 C-1.67 3.33 -1.34 3.66 -1 4 C-0.67 2.68 -0.34 1.36 0 0 Z " fill="#EACE91" transform="translate(19,15)"/>
<path d="M0 0 C2.50298434 2.93828597 3.46930939 5.17902761 4 9 C2.125 8.75 2.125 8.75 0 8 C-1.25 5.9375 -1.25 5.9375 -2 4 C-1.34 4 -0.68 4 0 4 C0 2.68 0 1.36 0 0 Z " fill="#D2972E" transform="translate(2,18)"/>
<path d="M0 0 C0.33 0.66 0.66 1.32 1 2 C-0.32 3.32 -1.64 4.64 -3 6 C-4.32 5.34 -5.64 4.68 -7 4 C-6.030625 3.525625 -5.06125 3.05125 -4.0625 2.5625 C-1.19522563 1.29806053 -1.19522563 1.29806053 0 0 Z " fill="#C08124" transform="translate(27,22)"/>
<path d="M0 0 C0.99 0.99 1.98 1.98 3 3 C2.01 4.485 2.01 4.485 1 6 C0.01 5.67 -0.98 5.34 -2 5 C-1.34 3.35 -0.68 1.7 0 0 Z " fill="#F5E6BB" transform="translate(14,14)"/>
</svg>
